Coordinates
version=1
nRows=19
nColumns=24
inDegrees=yes

Units are S.I. units (second, meters, Newtons, ...)
If the header above contains a line with 'inDegrees', this indicates whether rotational values are in degrees (yes) or radians (no).

endheader
time	pelvis_tilt	pelvis_list	pelvis_rotation	pelvis_tx	pelvis_ty	pelvis_tz	hip_flexion_r	hip_adduction_r	hip_rotation_r	knee_angle_r	ankle_angle_r	subtalar_angle_r	mtp_angle_r	hip_flexion_l	hip_adduction_l	hip_rotation_l	knee_angle_l	ankle_angle_l	subtalar_angle_l	mtp_angle_l	lumbar_extension	lumbar_bending	lumbar_rotation
      0.40000000	      4.81691427	     -1.95885810	     -0.98929513	      0.60146792	      1.04506340	     -0.02148651	     20.16397146	     -2.72403403	     -6.48758371	    -55.18745237	      2.73589577	     -0.00000307	      0.00000000	     -5.79404582	      1.19278077	     -1.07360413	     -7.33726256	      5.39813050	     -0.00000019	      0.00000000	    -16.87856955	     -0.83984438	     -4.70907013
      0.41700000	      4.80828222	     -1.84432843	     -0.84499494	      0.59876419	      1.04418575	     -0.02283784	     20.63297124	     -2.91926808	     -6.96800352	    -50.31550339	      2.74724576	     -0.00000353	      0.00000000	     -7.28549363	      1.39912615	     -0.90125840	     -6.33358751	      5.62798593	     -0.00000022	      0.00000000	    -17.19728742	     -0.79527253	     -5.06431766
      0.43300000	      4.71697380	     -1.50713587	     -0.90316272	      0.59649872	      1.04260783	     -0.02297855	     20.96566891	     -3.27823804	     -7.53051237	    -44.98908760	      2.64292827	     -0.00000425	      0.00000000	     -8.72504640	      1.81132019	     -0.93362506	     -5.31730321	      5.88950360	     -0.00000009	      0.00000000	    -17.21654468	     -1.12009476	     -5.07813117
      0.45000000	      4.84769451	     -1.04052926	     -0.78256526	      0.59436227	      1.04088965	     -0.02321997	     20.78499397	     -3.77491589	     -8.36723058	    -39.21020948	      2.37448298	     -0.00000496	      0.00000000	    -10.32166322	      2.32615478	     -0.74056995	     -4.46383321	      6.23698780	     -0.00000012	      0.00000000	    -17.45223689	     -1.50088584	     -5.20876635
      0.46700000	      4.70650250	     -0.34040770	     -0.73948668	      0.59185597	      1.03829438	     -0.02326395	     20.77802449	     -4.35989829	     -9.07623837	    -33.15758728	      1.94810093	     -0.00000502	      0.00000000	    -11.49149164	      3.07938315	     -0.57550382	     -3.84849731	      6.64710567	     -0.00000009	      0.00000000	    -17.40217197	     -2.20046146	     -5.36720476
      0.48300000	      4.63816486	     -0.03748070	     -0.30181681	      0.59054629	      1.03586941	     -0.02297202	     20.17306945	     -4.44791288	    -10.11608295	    -26.49005295	      1.39286184	     -0.00000465	      0.00000000	    -12.96034242	      3.26130356	     -0.05872118	     -2.94461885	      6.99079770	     -0.00000001	      0.00000000	    -17.37462855	     -2.39030390	     -5.69331986
      0.50000000	      4.50749757	      0.41641052	     -0.30280305	      0.58955783	      1.03283065	     -0.02158477	     19.64137197	     -4.36532213	    -10.19302077	    -19.89949699	      0.91711128	     -0.00000392	      0.00000000	    -14.40045772	      3.64907396	      0.04929469	     -2.05726780	      7.31220227	      0.00000007	      0.00000000	    -17.22146737	     -2.91587995	     -5.48030450
      0.51700000	      4.36358450	      0.98267912	     -0.21031788	      0.58826216	      1.02928077	     -0.02080870	     19.15569356	     -4.41999833	     -9.64864930	    -13.68505380	      0.63414836	     -0.00000282	      0.00000000	    -15.68346561	      4.15228699	      0.32338679	     -1.44315571	      7.73664786	      0.00000020	      0.00000000	    -17.10747014	     -3.38996300	     -5.64922142
      0.53300000	      4.18715689	      1.54941135	      0.12065582	      0.58722036	      1.02535940	     -0.02031289	     18.68132967	     -4.62012323	     -8.78138073	     -8.10882121	      0.64209433	     -0.00000181	      0.00000000	    -16.80579504	      4.57016408	      0.90267226	     -1.12979638	      8.31725693	      0.00000017	      0.00000000	    -16.93864629	     -3.78967106	     -5.78720708
      0.55000000	      4.10331314	      2.13751258	      0.02354598	      0.58676109	      1.02137970	     -0.01941575	     18.23746288	     -4.84456538	     -7.24455918	     -3.47659222	      0.88481541	     -0.00000105	      0.00000000	    -18.10731105	      5.11966155	      1.08113504	     -0.73643531	      8.77377537	      0.00000038	      0.00000000	    -16.81422713	     -4.19884574	     -5.83411090
      0.56700000	      4.02637635	      2.58694958	      0.01788002	      0.58588515	      1.01745470	     -0.01869165	     18.16367231	     -5.09652978	     -5.81096666	     -0.50901631	      1.39080900	     -0.00000069	      0.00000000	    -19.18880089	      5.48805058	      1.41223070	     -0.77327741	      9.40062547	      0.00000041	      0.00000000	    -16.73399954	     -4.44836831	     -5.67986884
      0.58300000	      3.88025760	      2.90858406	      0.66927045	      0.58427661	      1.01398619	     -0.01851263	     18.30623443	     -5.46573815	     -5.41971710	      1.01108102	      1.69639541	     -0.00000041	      0.00000000	    -19.74737330	      5.48597976	      2.30131230	     -1.63521455	     10.25686005	      0.00000064	      0.00000000	    -16.85033946	     -4.27693032	     -6.01127003
      0.60000000	      3.87097268	      2.92449830	      0.72529588	      0.58494026	      1.01125979	     -0.01664187	     18.55903944	     -5.30074098	     -4.91181940	      0.88676773	      1.90925565	     -0.00000047	      0.00000000	    -20.67448660	      5.27154858	      2.56042554	     -2.26934141	     10.83916211	      0.00000085	      0.00000000	    -16.69768271	     -4.05587101	     -5.87218390
      0.61700000	      3.79227034	      2.66501867	      0.99056288	      0.58554081	      1.00894405	     -0.01423065	     19.19889492	     -4.89579491	     -4.95382035	     -0.83850896	      1.65757497	     -0.00000094	      0.00000000	    -21.19643156	      4.66171247	      2.87113979	     -3.50744635	     11.55040848	      0.00000127	      0.00000000	    -16.63997454	     -3.54266551	     -5.96483397
      0.63300000	      3.73731379	      2.63276930	      1.53453206	      0.58648775	      1.00738141	     -0.01184728	     19.92770283	     -4.83107166	     -5.30918072	     -3.58330036	      1.01555995	     -0.00000153	      0.00000000	    -21.55384554	      4.16198048	      3.57836251	     -5.08533338	     12.03634276	      0.00000155	      0.00000000	    -16.58931461	     -3.18782311	     -6.26032379
      0.65000000	      3.60748695	      2.47849666	      2.02339252	      0.58798420	      1.00611043	     -0.00883983	     20.74351042	     -4.63544693	     -5.77584707	     -6.78634738	      0.01009742	     -0.00000211	      0.00000000	    -21.72416526	      3.54548047	      4.22928944	     -6.87386042	     12.34827811	      0.00000196	      0.00000000	    -16.35956447	     -2.80167993	     -6.63208550
      0.66700000	      3.47000289	      2.42009190	      2.41184663	      0.58993218	      1.00553454	     -0.00633005	     21.44428138	     -4.58789628	     -6.05898844	     -9.97345361	     -1.09292530	     -0.00000263	      0.00000000	    -21.66647447	      3.14456697	      4.86322095	     -9.09899454	     12.35273465	      0.00000239	      0.00000000	    -16.08732283	     -2.30130728	     -6.80726077
      0.68300000	      3.54409124	      2.37499091	      2.53517119	      0.59161509	      1.00570581	     -0.00350867	     22.06681313	     -4.50059392	     -6.01197368	    -13.53813024	     -1.69648238	     -0.00000303	      0.00000000	    -21.46794505	      2.88904851	      5.24582085	    -11.97650640	     12.06208248	      0.00000295	      0.00000000	    -15.98406528	     -1.83101787	     -6.70059929
      0.70000000	      3.82099524	      2.09939495	      2.83529806	      0.59500283	      1.00698573	     -0.00110287	     22.11173949	     -4.25487799	     -6.10374241	    -16.80660932	     -1.73249366	     -0.00000340	      0.00000000	    -21.20508256	      2.36433662	      5.62084249	    -15.43627996	     11.27855352	      0.00000364	      0.00000000	    -16.11023719	     -1.13554927	     -6.79935795
